<?xml version="1.0" encoding="UTF-8" standalone="no"?><!DOCTYPE svg PUBLIC "-//W3C//DTD SVG 1.1//EN" "http://www.w3.org/Graphics/SVG/1.1/DTD/svg11.dtd"><svg width="1000" height="1000" viewBox="0 0 1000 1000" version="1.1" xmlns="http://www.w3.org/2000/svg" xmlns:xlink="http://www.w3.org/1999/xlink" xml:space="preserve" style="fill-rule:evenodd;clip-rule:evenodd;stroke-linejoin:round;stroke-miterlimit:1.41421;"><g id="file"><rect x="0" y="0" width="1000" height="1000" style="fill:#fff;"/><rect x="110" y="0" width="782.763" height="1000" style="fill:#fff;"/><path d="M690,20l-560,0l0,960l740,0l0,-780l20,0l0,-200l-200,0l0,20Zm-580,-20l780,0l0,1000l-780,0l0,-1000Z" style="fill:#d5d8dd;"/><path d="M670,0l220,220l-220,0l0,-220Z" style="fill:#d5d8dd;"/><path d="M690,0l200,200l-200,0l0,-200Z" style="fill:#d5d8dd;"/><path d="M614.008,663.844l-77.325,-77.326l38.635,-38.635l115.879,115.879l-0.068,0.082l0.068,0.068l-115.879,115.879l-38.635,-38.622l77.325,-77.325Zm-305.137,0l-0.068,-0.082l115.879,-115.879l38.635,38.635l-77.325,77.326l77.325,77.325l-38.635,38.622l-115.879,-115.879l0.068,-0.068Z" style="fill:#8f98a3;"/></g></svg>