<?xml version="1.0" encoding="UTF-8" standalone="no"?><!DOCTYPE svg PUBLIC "-//W3C//DTD SVG 1.1//EN" "http://www.w3.org/Graphics/SVG/1.1/DTD/svg11.dtd"><svg width="100%" height="100%" viewBox="0 0 16 16" version="1.1" xmlns="http://www.w3.org/2000/svg" xmlns:xlink="http://www.w3.org/1999/xlink" xml:space="preserve" style="fill-rule:evenodd;clip-rule:evenodd;stroke-linejoin:round;stroke-miterlimit:1.41421;"><path d="M6.857,12.42l0,-1.697c0,-0.16 0.125,-0.294 0.286,-0.294l1.714,0c0.161,0 0.286,0.134 0.286,0.294l0,1.697c0,0.16 -0.125,0.294 -0.286,0.294l-1.714,0c-0.161,0 -0.286,-0.134 -0.286,-0.294l0,0Zm0.018,-3.34l-0.161,-4.098c0,-0.053 0.027,-0.125 0.09,-0.169c0.053,-0.045 0.133,-0.099 0.214,-0.099l1.964,0c0.08,0 0.161,0.054 0.214,0.099c0.063,0.044 0.09,0.133 0.09,0.187l-0.152,4.08c0,0.116 -0.134,0.206 -0.304,0.206l-1.651,0c-0.161,0 -0.295,-0.09 -0.304,-0.206l0,0Zm0.125,-8.339l-6.857,12.572c-0.197,0.348 -0.188,0.776 0.018,1.125c0.205,0.348 0.58,0.562 0.982,0.562l13.714,0c0.402,0 0.777,-0.214 0.982,-0.562c0.206,-0.349 0.215,-0.777 0.018,-1.125l-6.857,-12.572c-0.196,-0.366 -0.58,-0.598 -1,-0.598c-0.42,0 -0.804,0.232 -1,0.598l0,0Z" style="fill:#e78640;fill-rule:nonzero;"/></svg>