<?xml version="1.0" encoding="UTF-8" standalone="no"?><!DOCTYPE svg PUBLIC "-//W3C//DTD SVG 1.1//EN" "http://www.w3.org/Graphics/SVG/1.1/DTD/svg11.dtd"><svg width="100%" height="100%" viewBox="0 0 44 44" version="1.1" xmlns="http://www.w3.org/2000/svg" xmlns:xlink="http://www.w3.org/1999/xlink" xml:space="preserve" xmlns:serif="http://www.serif.com/" style="fill-rule:evenodd;clip-rule:evenodd;stroke-linejoin:round;stroke-miterlimit:1.41421;"><path id="LNPmkQY8Ks-Shape" d="M39.267,8l-34.534,0c-0.389,0 -0.733,0.344 -0.733,0.733l0,26.534c0,0.389 0.344,0.733 0.733,0.733l34.534,0c0.389,0 0.733,-0.344 0.733,-0.733l0,-26.534c0,-0.389 -0.344,-0.733 -0.733,-0.733Zm4.733,-0.333l0,28.666c0,2.017 -1.65,3.667 -3.667,3.667l-36.666,0c-2.017,0 -3.667,-1.65 -3.667,-3.667l0,-28.666c0,-2.017 1.65,-3.667 3.667,-3.667l36.666,0c2.017,0 3.667,1.65 3.667,3.667Z" style="fill:#f00;fill-rule:nonzero;"/><path d="M30.348,21.995l-5.662,-5.662l2.829,-2.829l8.485,8.485l-0.005,0.006l0.005,0.005l-8.485,8.485l-2.829,-2.828l5.662,-5.662Zm-22.343,0l-0.005,-0.006l8.485,-8.485l2.829,2.829l-5.662,5.662l5.662,5.662l-2.829,2.828l-8.485,-8.485l0.005,-0.005Z" style="fill:#f00;"/></svg>