<?xml version="1.0" encoding="UTF-8" standalone="no"?><!DOCTYPE svg PUBLIC "-//W3C//DTD SVG 1.1//EN" "http://www.w3.org/Graphics/SVG/1.1/DTD/svg11.dtd"><svg width="40" height="40" viewBox="0 0 40 40" version="1.1" xmlns="http://www.w3.org/2000/svg" xmlns:xlink="http://www.w3.org/1999/xlink" xml:space="preserve" style="fill-rule:evenodd;clip-rule:evenodd;stroke-linejoin:round;stroke-miterlimit:1.41421;"><path id="LNPmkQY8Ks-Shape" d="M36.666,36l-33.332,0c-1.834,0 -3.334,-1.5 -3.334,-3.334l0,-25.332c0,-1.834 1.5,-3.334 3.334,-3.334l33.332,0c1.834,0 3.334,1.5 3.334,3.334l0,25.332c0,1.834 -1.5,3.334 -3.334,3.334Zm-0.332,-29l-32.668,0c-0.353,0 -0.666,0.313 -0.666,0.666l0,24.668c0,0.353 0.949,0.666 1.303,0.666l32.031,0c0.353,0 0.666,-0.313 0.666,-0.666l0,-24.668c0,-0.353 -0.313,-0.666 -0.666,-0.666Zm-8.718,12.995l-5.147,-5.147l2.572,-2.572l7.714,7.714l-0.005,0.005l0.005,0.005l-7.714,7.714l-2.572,-2.571l5.147,-5.148Zm-20.311,0l-0.005,-0.005l7.714,-7.714l2.571,2.572l-5.147,5.147l5.147,5.148l-2.571,2.571l-7.714,-7.714l0.005,-0.005Z" style="fill:#fa4141;fill-rule:nonzero;"/></svg>