<?xml version="1.0" encoding="UTF-8" standalone="no"?><!DOCTYPE svg PUBLIC "-//W3C//DTD SVG 1.1//EN" "http://www.w3.org/Graphics/SVG/1.1/DTD/svg11.dtd"><svg width="100%" height="100%" viewBox="0 0 44 44" version="1.1" xmlns="http://www.w3.org/2000/svg" xmlns:xlink="http://www.w3.org/1999/xlink" xml:space="preserve" xmlns:serif="http://www.serif.com/" style="fill-rule:evenodd;clip-rule:evenodd;stroke-linejoin:round;stroke-miterlimit:1.41421;"><path d="M42,6c1.104,0 2,0.896 2,2l0,28c0,1.104 -0.896,2 -2,2l-40,0c-1.104,0 -2,-0.896 -2,-2l0,-28c0,-1.104 0.896,-2 2,-2l40,0Zm-10.652,15.995l-5.662,-5.662l2.829,-2.829l8.485,8.485l-0.005,0.006l0.005,0.005l-8.485,8.485l-2.829,-2.828l5.662,-5.662Zm-24.343,0l-0.005,-0.006l8.485,-8.485l2.829,2.829l-5.662,5.662l5.662,5.662l-2.829,2.828l-8.485,-8.485l0.005,-0.005Z" style="fill:url(#_Linear1);"/><defs><linearGradient id="_Linear1" x1="0" y1="0" x2="1" y2="0" gradientUnits="userSpaceOnUse" gradientTransform="matrix(44,32,-32,44,0,6)"><stop offset="0" style="stop-color:#ffcf4c;stop-opacity:1"/><stop offset="1" style="stop-color:#f1256f;stop-opacity:1"/></linearGradient></defs></svg>